<svg xmlns:dc="http://purl.org/dc/elements/1.1/" xmlns:cc="http://creativecommons.org/ns#" xmlns:rdf="http://www.w3.org/1999/02/22-rdf-syntax-ns#" xmlns:svg="http://www.w3.org/2000/svg" xmlns="http://www.w3.org/2000/svg" xmlns:sodipodi="http://sodipodi.sourceforge.net/DTD/sodipodi-0.dtd" xmlns:inkscape="http://www.inkscape.org/namespaces/inkscape" version="1.1" sodipodi:docname="expressjs-ar21.svg" width="120" height="60" inkscape:version="0.92.2 (5c3e80d, 2017-08-06)" style=""><rect id="backgroundrect" width="100%" height="100%" x="0" y="0" fill="none" stroke="none"/>
  <metadata id="metadata24">
    <rdf:RDF>
      <cc:Work rdf:about="">
        <dc:format>image/svg+xml</dc:format>
        <dc:type rdf:resource="http://purl.org/dc/dcmitype/StillImage"/>
        <dc:title>Artboard 12</dc:title>
      </cc:Work>
    </rdf:RDF>
  </metadata>
  <defs id="defs22"/>
  <sodipodi:namedview pagecolor="#ffffff" bordercolor="#666666" borderopacity="1" objecttolerance="10" gridtolerance="10" guidetolerance="10" inkscape:pageopacity="0" inkscape:pageshadow="2" inkscape:window-width="1920" inkscape:window-height="1001" id="namedview20" showgrid="false" inkscape:zoom="1.84375" inkscape:cx="-2.1694915" inkscape:cy="64" inkscape:window-x="-9" inkscape:window-y="-9" inkscape:window-maximized="1" inkscape:current-layer="Express"/>
  <title id="title2">Artboard 12</title>
  
<g class="currentLayer" style=""><title>Layer 1</title><g id="original-wordmark" class="selected" fill="#ffffff" fill-opacity="1">
    <path d="M40.011493119600004,41.7533192024 V18.7078243368 H41.26248564 V22.3331496 a4.7401553324000005,4.7401553324000005 0 0 0 0.40848735360000005,-0.5106091920000001 a6.1953915296,6.1953915296 0 0 1 5.6507417248000005,-3.5061831184 c2.8509013220000003,-0.08510153200000001 5.165662992400001,0.9701574648000001 6.5272875044,3.5061831184 a11.2674428368,11.2674428368 0 0 1 0.27232490240000007,10.331325984800001 c-1.2680128268,2.8423911688 -4.3997492044,4.2550766 -7.752749565199999,3.7359572547999997 A6.2719829084,6.2719829084 0 0 1 41.364607478399996,32.587884206 V41.7533192024 zM41.26248564,26.860551102400002 c0.11063199160000001,1.1233402224 0.15318275760000002,1.9232946231999999 0.28083505560000005,2.7062287176 c0.4935888856000001,3.0806754584 2.3147616704000002,4.9103583963999995 5.1741731456,5.2422543712000005 A5.8805158612,5.8805158612 0 0 0 53.17670012,31.0730769364 A10.0164503164,10.0164503164 0 0 0 52.9554361368,22.835248638800003 A5.7613737164,5.7613737164 0 0 0 46.8876969052,19.482248278 A5.6081909588,5.6081909588 0 0 0 41.8752166704,23.6266928864 A28.423911688,28.423911688 0 0 0 41.26248564,26.860551102400002 z" id="path4" inkscape:connector-curvature="0" stroke-width="0" fill="#ffffff" fill-opacity="1"/>
    <path d="m80.7581066412,29.99228748 a6.7400413344,6.7400413344 0 0 1 -6.5868585768,5.95710724 c-5.2422543712000005,0.26381474920000003 -7.701688646000001,-3.2168379096 -8.0931556932,-7.23363022 a11.590828658400001,11.590828658400001 0 0 1 1.021218384,-6.3826149 a7.122998228399999,7.122998228399999 0 0 1 7.4123434372000006,-3.9742415444 a6.80812256,6.80812256 0 0 1 6.0422087719999995,5.1826832988 a34.9682194988,34.9682194988 0 0 1 0.5872005708000002,3.82956894 H67.3631255044 c-0.25530459600000005,3.6423455696 1.70203064,6.5698382704 4.4763405832,7.276180986000001 c3.4551221992,0.85101532 6.408145359600001,-0.6467716432000001 7.480424662799999,-3.9316907784 C79.55817504,29.8731453352 79.99219285320001,29.7540031904 80.7581066412,29.99228748 zM67.3631255044,26.205269305999998 h12.3141916804 c-0.07659137880000003,-3.8806298592000004 -2.4934748876,-6.6889804152000005 -5.7698838696,-6.7315311812 c-3.7104267952000005,-0.05957107240000001 -6.3826149,2.6466576452 -6.5443078108,6.7315311812 z" id="path6" inkscape:connector-curvature="0" stroke-width="0" fill="#ffffff" fill-opacity="1"/>
    <path d="m83.29413229480001,30.077389011999998 h1.2084417544 a4.8422771708,4.8422771708 0 0 0 2.8423911688,4.169975068 a7.429363743600001,7.429363743600001 0 0 0 6.4506961256,-0.17020306400000002 a2.9019622412,2.9019622412 0 0 0 1.70203064,-2.8509013220000003 a2.6296373388,2.6296373388 0 0 0 -1.7701118656000001,-2.6296373388 c-1.3275838992,-0.4935888856000001 -2.7402693304000003,-0.765913788 -4.0933836892,-1.1999316012 A29.99829003,29.99829003 0 0 1 85.51528228000001,25.8903936376 c-2.1785992192,-1.06376915 -2.3147616704000002,-5.2082137584 0.15318275760000002,-6.518777351200001 a8.688866417200002,8.688866417200002 0 0 1 8.3059095232,-0.12765229800000003 a4.374218744799999,4.374218744799999 0 0 1 2.2126398320000003,4.459320276800001 h-1.0382386904 c0,-0.05106091920000001 -0.09361168520000002,-0.09361168520000002 -0.09361168520000002,-0.14467260440000002 c-0.12765229800000003,-3.3104495948 -2.9019622412,-4.3316679788 -5.8805158612,-4.04232277 a7.8038104844000005,7.8038104844000005 0 0 0 -2.55304596,0.7744239412 a2.55304596,2.55304596 0 0 0 -1.4807666568000002,2.55304596 a2.55304596,2.55304596 0 0 0 1.70203064,2.3998632024 c1.3105635928000001,0.47656857920000006 2.680698258,0.7829340944000001 4.0253024636,1.1573808352000001 c1.0807894564,0.297855362 2.2041296787999998,0.4935888856000001 3.2508785224000003,0.85101532 a3.8380790931999997,3.8380790931999997 0 0 1 2.6381474920000003,3.4636323524000003 a4.0933836892,4.0933836892 0 0 1 -2.2041296787999998,4.2550766 c-2.8423911688,1.6084189548 -7.5229754288,1.1829112948000002 -9.6079629628,-0.85101532 A5.6762721844,5.6762721844 0 0 1 83.29413229480001,30.077389011999998 z" id="path8" inkscape:connector-curvature="0" stroke-width="0" fill="#ffffff" fill-opacity="1"/>
    <path d="m112.0754704172,23.703284265200004 h-1.1318503756 c0,-0.15318275760000002 -0.05957107240000001,-0.2893452088000001 -0.07659137880000003,-0.41699750680000003 a3.7019166419999996,3.7019166419999996 0 0 0 -3.0125942328,-3.5572440376 a7.429363743600001,7.429363743600001 0 0 0 -4.774195945200001,0.22977413640000002 a2.9019622412,2.9019622412 0 0 0 -2.1020078404,2.76579979 a2.6721881048,2.6721881048 0 0 0 2.042436768,2.6892084112 c1.70203064,0.5276294984000001 3.446612046,0.85101532 5.1741731456,1.3275838992 a14.46726044,14.46726044 0 0 1 1.6509697208,0.5020990388000001 a4.2550766,4.2550766 0 0 1 0.22977413640000002,7.922952629200001 a9.471800511600001,9.471800511600001 0 0 1 -7.65913788,0.07659137880000003 a5.3103355968,5.3103355968 0 0 1 -3.1998176032,-5.1571528392 h0.47656857920000006 h0.6297513368000001 a6.2039016828,6.2039016828 0 0 0 9.446270052,3.9487110848000007 a3.0381246924000003,3.0381246924000003 0 0 0 1.6339494144,-2.8423911688 a2.6296373388,2.6296373388 0 0 0 -1.7956423252,-2.6126170323999998 c-1.3275838992,-0.4935888856000001 -2.7402693304000003,-0.7574036348000002 -4.0933836892,-1.191421448 a30.1514727876,30.1514727876 0 0 1 -4.144444608400001,-1.48927681 c-2.1275383,-1.0467488436 -2.297741364,-5.1571528392 0.12765229800000003,-6.467716432 a8.5697242724,8.5697242724 0 0 1 8.442071974400001,-0.09361168520000002 a4.4508101236,4.4508101236 0 0 1 2.1360484532,4.3657085916 z" id="path10" inkscape:connector-curvature="0" stroke-width="0" fill="#ffffff" fill-opacity="1"/>
    <path d="M37.943525892000004,35.53239721320001 A1.9488250828,1.9488250828 0 0 1 35.5266423832,34.61330066760001 C34.1394874116,32.5368232868 32.6076598356,30.553957591199996 31.135403332000003,28.5285411296 l-0.6382614900000001,-0.85101532 c-1.7530915592,2.3488022832000004 -3.5061831184,4.6039928812 -5.10609192,6.9442850112 a1.872233704,1.872233704 0 0 1 -2.297741364,0.9020762392 l6.5783484236000005,-8.825028868399999 l-6.1188001508,-7.974013548399999 a2.0339266148000004,2.0339266148000004 0 0 1 2.4253936620000003,0.85101532 c1.4211955844000002,2.0764773808 2.9955739264,4.059343076399999 4.5614421152,6.1613509168 c1.5743783420000002,-2.084987534 3.1317363776000002,-4.0763633828 4.5869725748,-6.1358204572 a1.829682938,1.829682938 0 0 1 2.2807210576,-0.85101532 l-2.3743327428,3.1487566840000003 c-1.06376915,1.404175278 -2.1105179936000003,2.8168607092 -3.2168379096,4.1869953744 a0.85101532,0.85101532 0 0 0 0,1.2680128268 c2.0339266148000004,2.6977185644 4.0508329232,5.403947282 6.127310304,8.1782572252 z" id="path12" inkscape:connector-curvature="0" stroke-width="0" fill="#ffffff" fill-opacity="1"/>
    <path d="m65.87384869440001,18.639743111199998 v1.191421448 a6.1698610700000005,6.1698610700000005 0 0 0 -6.5698382704,6.3741047468000005 q0,4.2040156808 0,8.4080313616 c0,0.297855362 0,0.595710724 0,0.9531371584000001 H58.087058516400006 V18.7078243368 h1.191421448 v3.4551221992 c1.4722565036,-2.5190053472000002 3.744467408,-3.4551221992 6.595368730000001,-3.5232034247999997 z" id="path14" inkscape:connector-curvature="0" stroke-width="0" fill="#ffffff" fill-opacity="1"/>
    <path d="m7.3325048316,26.5882262 c0.17871321720000002,-0.85101532 0.2893452088000001,-1.7786220188 0.5361396516000001,-2.6466576452 c1.4722565036,-5.233744218 7.4719145095999995,-7.4123434372000006 11.599338811600001,-4.169975068 c2.4168835088,1.8977641636 3.0211043859999998,4.5869725748 2.9019622412,7.616587114 H8.753700416000001 C8.5324364328,32.800638036 12.438596751600002,36.0685368648 17.43405668,34.40054683760001 a5.1826832988,5.1826832988 0 0 0 3.2934292884,-3.6678760292000003 c0.26381474920000003,-0.85101532 0.6893224092000001,-0.9956879244 1.4977869632000003,-0.7488934816000001 A6.9102443984,6.9102443984 0 0 1 18.92333349,35.0302981744 A7.999544008000001,7.999544008000001 0 0 1 9.604715736,33.838876726399995 A8.382500902,8.382500902 0 0 1 7.5112180488,28.920008176800003 c0,-0.2893452088000001 -0.11063199160000001,-0.5786904176000002 -0.17020306400000002,-0.85101532 Q7.3325048316,27.311589222000002 7.3325048316,26.5882262 zM8.7707207224,26.222289612400004 H21.0849124028 C21.008321024,22.2991089872 18.5318664428,19.5162888908 15.2299270012,19.4907584312 C11.5535408188,19.439697512000002 8.92390348,22.162946536 8.7622105692,26.205269305999998 z" id="path16" inkscape:connector-curvature="0" stroke-width="0" fill="#ffffff" fill-opacity="1"/>
  </g></g></svg>