<svg xmlns="http://www.w3.org/2000/svg" xmlns:xlink="http://www.w3.org/1999/xlink" viewBox="0 0 1023.858 390.444" height="416.448" width="1092.096" xmlns:v="https://vecta.io/nano"><defs><linearGradient gradientTransform="matrix(0.4345,-0.9318,-0.9318,-0.4345,6223.4761,-5052.7427)" y2="2496.69" x2="-6636.237" y1="2774.3" x1="-6873.648" id="A" xlink:href="#S"><stop offset="0" stop-color="#f59723"/><stop offset=".312" stop-color="#f69822"/><stop offset=".838" stop-color="#e87726"/></linearGradient><linearGradient gradientTransform="matrix(0.4345,-0.9318,-0.9318,-0.4345,6223.4761,-5052.7427)" y2="2804.961" x2="-6936.925" y1="2804.961" x1="-8630.72" id="B" xlink:href="#S"><stop offset=".323" stop-color="#9c2063"/><stop offset=".63" stop-color="#c82037"/><stop offset=".751" stop-color="#cc2135"/><stop offset="1" stop-color="#e87726"/></linearGradient><linearGradient gradientTransform="matrix(0.4345,-0.9318,-0.9318,-0.4345,6223.4761,-5052.7427)" y2="2635.284" x2="-7416.919" y1="2635.284" x1="-8426.256" id="C" xlink:href="#S"><stop offset="0" stop-color="#282661"/><stop offset=".095" stop-color="#662e8c"/><stop offset=".788" stop-color="#9e2064"/><stop offset=".949" stop-color="#cc2032"/></linearGradient><linearGradient gradientTransform="matrix(0.4345,-0.9318,-0.9318,-0.4345,6223.4761,-5052.7427)" y2="2820.86" x2="-6841.793" y1="2820.86" x1="-8535.588" id="D" xlink:href="#S"><stop offset=".323" stop-color="#9c2063"/><stop offset=".63" stop-color="#c82037"/><stop offset=".751" stop-color="#cc2135"/><stop offset="1" stop-color="#e87726"/></linearGradient><linearGradient gradientTransform="matrix(0.4345,-0.9318,-0.9318,-0.4345,6223.4761,-5052.7427)" y2="2797.879" x2="-7521.917" y1="2797.879" x1="-8412.058" id="E" xlink:href="#S"><stop offset="0" stop-color="#282661"/><stop offset=".095" stop-color="#662e8c"/><stop offset=".788" stop-color="#9e2064"/><stop offset=".949" stop-color="#cc2032"/></linearGradient><linearGradient gradientTransform="matrix(0.4345,-0.9318,-0.9318,-0.4345,6223.4761,-5052.7427)" y2="2645.49" x2="-6841.793" y1="2645.49" x1="-8535.588" id="F" xlink:href="#S"><stop offset=".323" stop-color="#9c2063"/><stop offset=".63" stop-color="#c82037"/><stop offset=".751" stop-color="#cc2135"/><stop offset="1" stop-color="#e87726"/></linearGradient><linearGradient gradientTransform="matrix(0.4345,-0.9318,-0.9318,-0.4345,6223.4761,-5052.7427)" y2="2654.265" x2="-6946.865" y1="2654.265" x1="-8640.659" id="G" xlink:href="#S"><stop offset=".323" stop-color="#9c2063"/><stop offset=".63" stop-color="#c82037"/><stop offset=".751" stop-color="#cc2135"/><stop offset="1" stop-color="#e87726"/></linearGradient><linearGradient gradientTransform="matrix(0.4345,-0.9318,-0.9318,-0.4345,6223.4761,-5052.7427)" y2="2593.446" x2="-6841.792" y1="2593.446" x1="-8535.589" id="H" xlink:href="#S"><stop offset=".323" stop-color="#9c2063"/><stop offset=".63" stop-color="#c82037"/><stop offset=".751" stop-color="#cc2135"/><stop offset="1" stop-color="#e87726"/></linearGradient><linearGradient gradientTransform="matrix(0.4345,-0.9318,-0.9318,-0.4345,6223.4761,-5052.7427)" y2="2599.324" x2="-6841.792" y1="2599.324" x1="-8535.589" id="I" xlink:href="#S"><stop offset=".323" stop-color="#9c2063"/><stop offset=".63" stop-color="#c82037"/><stop offset=".751" stop-color="#cc2135"/><stop offset="1" stop-color="#e87726"/></linearGradient><linearGradient gradientTransform="matrix(0.4345,-0.9318,-0.9318,-0.4345,6223.4761,-5052.7427)" y2="2600.552" x2="-7209.654" y1="2600.552" x1="-7584.039" id="J" xlink:href="#S"><stop offset=".323" stop-color="#9c2063"/><stop offset=".63" stop-color="#c82037"/><stop offset=".751" stop-color="#cc2135"/><stop offset="1" stop-color="#e87726"/></linearGradient><path id="K" d="M586.7 709.5s0 .1 0 0c-.1 0-.1 0-.1.1 1-.1 2.1-.3 3.1-.5 4.2-.6 8.3-1.3 12.3-2.3l-15.3 2.7z"/><path id="L" d="M560.5 792.8c-3.3.6-6.6 1.1-10 1.5h0c3.4-.3 6.8-.9 10-1.5z"/><path id="M" d="M586.6 709.6c1-.1 2.1-.3 3.1-.5-1 .1-2 .4-3.1.5z"/><path id="N" d="M586.6 709.6c.1 0 .1-.1 0 0h0 0 0c.1-.1.1 0 0 0z"/><path id="O" d="M329.003 756.509v41.568h-8.3v-41.568h-14.911v-7.596h38.122v7.596z"/><path id="P" d="M412.212 748.913q11.183 0 16.318 4.29 5.134 4.29 5.134 13.223 0 8.933-5.275 13.082-5.205 4.15-16.036 4.15h-8.722v14.419h-8.3v-49.164zm1.055 27.22q6.893 0 9.355-2.602 2.532-2.673 2.532-7.737 0-5.134-3.165-7.245-3.165-2.11-9.917-2.11h-8.44v19.694z"/><path id="Q" d="M541.551 748.913v7.807h-26.235v13.012h23.562v7.385h-23.562v13.153h27.079v7.807h-35.379v-49.164z"/><path id="R" d="M592.283 764.879q0 12.168-10.621 15.333l12.871 17.865h-10.55l-11.746-16.529h-10.902v16.529h-8.3v-49.164h18.287q11.254 0 16.107 3.798 4.853 3.798 4.853 12.168zm-20.608 9.144q7.034 0 9.566-2.18 2.532-2.18 2.532-6.963 0-4.853-2.602-6.612-2.602-1.829-9.284-1.829h-10.55v17.584z"/><linearGradient id="S" gradientUnits="userSpaceOnUse"/></defs><g transform="translate(-72.315 -466.771)"><g transform="matrix(.225941 0 0 .225941 72.15641 466.78864)"><linearGradient gradientTransform="matrix(0.4345,-0.9318,-0.9318,-0.4345,6223.4761,-5052.7427)" y2="2496.69" x2="-6636.237" y1="2774.3" x1="-6873.648" gradientUnits="userSpaceOnUse"><stop offset="0" stop-color="#f59723"/><stop offset=".312" stop-color="#f69822"/><stop offset=".838" stop-color="#e87726"/></linearGradient><path d="M736.1 8.1c-27.1 16-72.2 61.3-125.8 127l49.3 93.2C694.3 178.8 729.5 134.1 765 96l4.1-4.4L765 96c-11.5 12.6-46.4 53.4-99 134.2 50.7-2.5 128.5-12.9 192-23.7 19-105.9-18.5-154.3-18.5-154.3s-47.6-77-103.4-44.1z" fill="url(#A)"/><g fill="#bd202e"><path d="M570.2 791l-19.4 3.4s-.1 0-.1.1l10-1.5 9.5-2z"/><path d="M570.2 791l-19.4 3.4s-.1 0-.1.1l10-1.5 9.5-2z" opacity=".35"/><use xlink:href="#K"/><use xlink:href="#K" opacity=".35"/></g><linearGradient gradientTransform="matrix(0.4345,-0.9318,-0.9318,-0.4345,6223.4761,-5052.7427)" y2="2804.961" x2="-6936.925" y1="2804.961" x1="-8630.72" gradientUnits="userSpaceOnUse"><stop offset=".323" stop-color="#9c2063"/><stop offset=".63" stop-color="#c82037"/><stop offset=".751" stop-color="#cc2135"/><stop offset="1" stop-color="#e87726"/></linearGradient><path d="M514 469.2c15-28.1 30.2-55.5 45.5-82.1 15.9-27.8 32.1-54.6 48.4-80.6.9-1.5 2-3.1 2.9-4.6 16.1-25.5 32.4-50.1 48.7-73.5l-49.3-93.2-11.2 13.9c-14.3 17.8-29 36.8-44.2 57.1-17.1 22.8-34.6 47.2-52.5 72.8l-50 74-42.7 67.2c-.5.8-1 1.7-1.5 2.6l64.3 127c13.6-27.5 27.6-54.4 41.6-80.6z" fill="url(#B)"/><linearGradient gradientTransform="matrix(0.4345,-0.9318,-0.9318,-0.4345,6223.4761,-5052.7427)" y2="2635.284" x2="-7416.919" y1="2635.284" x1="-8426.256" gradientUnits="userSpaceOnUse"><stop offset="0" stop-color="#282661"/><stop offset=".095" stop-color="#662e8c"/><stop offset=".788" stop-color="#9e2064"/><stop offset=".949" stop-color="#cc2032"/></linearGradient><path d="M221.2 1184.4l-25.6 71.5c-.1.3-.2.7-.4 1l-3.6 10.3-22.3 64.7c18.9 8.6 34.1 31.4 48.5 57.2-1.5-26.7-12.5-51.8-33.6-71.2 93.3 4.2 173.7-19.4 215.3-87.6 3.7-6.1 7.1-12.4 10.2-19.3-18.9 24-42.4 34.1-86.5 31.7-.1 0-.2.1-.3.1.1 0 .2-.1.3-.1 65-29.1 97.5-57 126.4-103.2 6.8-11 13.5-22.9 20.3-36.2-56.8 58.3-122.5 74.9-191.8 62.3l-52 5.7-4.9 13.1z" fill="url(#C)"/><linearGradient gradientTransform="matrix(0.4345,-0.9318,-0.9318,-0.4345,6223.4761,-5052.7427)" y2="2820.86" x2="-6841.793" y1="2820.86" x1="-8535.588" gradientUnits="userSpaceOnUse"><stop offset=".323" stop-color="#9c2063"/><stop offset=".63" stop-color="#c82037"/><stop offset=".751" stop-color="#cc2135"/><stop offset="1" stop-color="#e87726"/></linearGradient><path d="M245.5 1068.1l34.6-88 35-85.6 36.6-86.3 38.9-87.6 39.8-85.6 14.7-30.5 25.8-52.1 1.4-2.8-64.3-127-3.2 5.1-44.5 75c-14.8 25.8-29.3 52.1-43.5 78.8l-35.1 68.1-6.8 13.9c-14 28.9-26.6 56.6-38.1 83.5-13 30.3-24.4 59.3-34.3 86.8-6.6 18.1-12.5 35.5-18 52.3l-12.9 43c-9.6 33.6-17.9 67.2-24.7 100.6l64.6 127.5 26.3-69.4 7.7-19.7z" fill="url(#D)"/><linearGradient gradientTransform="matrix(0.4345,-0.9318,-0.9318,-0.4345,6223.4761,-5052.7427)" y2="2797.879" x2="-7521.917" y1="2797.879" x1="-8412.058" gradientUnits="userSpaceOnUse"><stop offset="0" stop-color="#282661"/><stop offset=".095" stop-color="#662e8c"/><stop offset=".788" stop-color="#9e2064"/><stop offset=".949" stop-color="#cc2032"/></linearGradient><path d="M146.2 1034c-8.1 40.8-13.9 81.4-16.8 121.8l-.3 4.2c-20.2-32.3-74.1-63.8-74-63.5 38.7 56 68 111.6 72.3 166.2-20.7 4.2-49-1.9-81.7-13.9 34.1 31.4 59.7 40 69.8 42.4-31.4 2-64 23.5-96.9 48.3 48.1-19.6 87-27.4 114.8-21.1C89.2 1443.4 45 1581.4.7 1728c13.6-4 21.7-13.2 26.2-25.5 7.9-26.5 60.2-200.7 142.3-429.4l7.1-19.6c.6-1.9 1.3-3.7 2-5.4l26.9-73.5 6.4-17.1c0-.1.1-.2.1-.3L147 1029.7c-.2 1.3-.5 2.8-.8 4.3z" fill="url(#E)"/><linearGradient gradientTransform="matrix(0.4345,-0.9318,-0.9318,-0.4345,6223.4761,-5052.7427)" y2="2645.49" x2="-6841.793" y1="2645.49" x1="-8535.588" gradientUnits="userSpaceOnUse"><stop offset=".323" stop-color="#9c2063"/><stop offset=".63" stop-color="#c82037"/><stop offset=".751" stop-color="#cc2135"/><stop offset="1" stop-color="#e87726"/></linearGradient><path d="M482.3 560.2l-5.6 11.4-17 35.2-18.7 39.8-9.6 20.7-29.2 64.8-37.1 85.4-36.4 87.5-35.5 88.6-32.3 83.8-1.5 4.1-32.6 87.8-.7 2.1 52-5.7-3.1-.5c62.1-7.7 144.8-54.2 198.1-111.5 24.6-26.4 46.9-57.6 67.5-94.1 15.3-27.1 29.8-57.3 43.6-90.6 12-29.1 23.5-60.7 34.6-94.8-14.3 7.5-30.6 13.1-48.6 16.9-3.2.7-6.4 1.3-9.7 1.9s-6.6 1.1-10 1.5h0 0s.1 0 .1-.1c58-22.3 94.5-65.3 121-118-15.2 10.4-40 24-69.7 30.5-4 .9-8.1 1.6-12.3 2.3-1 .1-2.1.3-3.1.5h0 0 .1.1 0c20.2-8.4 37.1-17.9 51.8-29 3.2-2.4 6.3-4.8 9.1-7.4 4.5-3.9 8.7-8 12.9-12.2a306.94 306.94 0 0 0 7.6-8.5 195.96 195.96 0 0 0 16.2-22.3c1.5-2.5 3.1-4.9 4.5-7.5 2-3.7 3.8-7.4 5.6-10.9 8.1-16.2 14.6-30.8 19.7-43.5a439.52 439.52 0 0 0 6.8-17.8c.8-2.2 1.5-4.3 2.2-6.4 2.1-6.1 3.7-11.5 5-16.3 2-7.2 3.2-12.9 3.8-17h0 0c-2 1.5-4.2 3.1-6.8 4.6-17.5 10.5-47.5 19.9-71.7 24.4l47.7-5.2-47.7 5.2c-.3.1-.7.1-1.1.2-2.5.4-4.8.8-7.3 1.1l1.2-.6-163.3 17.9c0 .4-.3 1.1-.6 1.7z" fill="url(#F)"/><linearGradient gradientTransform="matrix(0.4345,-0.9318,-0.9318,-0.4345,6223.4761,-5052.7427)" y2="2654.265" x2="-6946.865" y1="2654.265" x1="-8640.659" gradientUnits="userSpaceOnUse"><stop offset=".323" stop-color="#9c2063"/><stop offset=".63" stop-color="#c82037"/><stop offset=".751" stop-color="#cc2135"/><stop offset="1" stop-color="#e87726"/></linearGradient><path d="M666.1 230.2c-14.5 22.3-30.3 47.6-47.5 76.3-.9 1.4-1.9 3.1-2.7 4.5L569 392.9 524.6 476l-41.5 82.5 163.3-17.9c47.6-21.9 68.8-41.6 89.4-70.3l16.4-24.7c16.8-26.2 33.2-55 47.9-83.7 14.2-27.7 26.7-55.1 36.3-79.9 6.1-15.7 11-30.3 14.4-43.2 3-11.3 5.3-22.1 7.1-32.4-63.3 10.9-141.2 21.3-191.8 23.8z" fill="url(#G)"/><g fill="#bd202e"><use xlink:href="#L"/><use xlink:href="#L" opacity=".35"/></g><linearGradient gradientTransform="matrix(0.4345,-0.9318,-0.9318,-0.4345,6223.4761,-5052.7427)" y2="2593.446" x2="-6841.792" y1="2593.446" x1="-8535.589" gradientUnits="userSpaceOnUse"><stop offset=".323" stop-color="#9c2063"/><stop offset=".63" stop-color="#c82037"/><stop offset=".751" stop-color="#cc2135"/><stop offset="1" stop-color="#e87726"/></linearGradient><use xlink:href="#L" fill="url(#H)"/><g fill="#bd202e"><use xlink:href="#M"/><use xlink:href="#M" opacity=".35"/></g><linearGradient gradientTransform="matrix(0.4345,-0.9318,-0.9318,-0.4345,6223.4761,-5052.7427)" y2="2599.324" x2="-6841.792" y1="2599.324" x1="-8535.589" gradientUnits="userSpaceOnUse"><stop offset=".323" stop-color="#9c2063"/><stop offset=".63" stop-color="#c82037"/><stop offset=".751" stop-color="#cc2135"/><stop offset="1" stop-color="#e87726"/></linearGradient><use xlink:href="#M" fill="url(#I)"/><g fill="#bd202e"><use xlink:href="#N"/><use xlink:href="#N" opacity=".35"/></g><linearGradient gradientTransform="matrix(0.4345,-0.9318,-0.9318,-0.4345,6223.4761,-5052.7427)" y2="2600.552" x2="-7209.654" y1="2600.552" x1="-7584.039" gradientUnits="userSpaceOnUse"><stop offset=".323" stop-color="#9c2063"/><stop offset=".63" stop-color="#c82037"/><stop offset=".751" stop-color="#cc2135"/><stop offset="1" stop-color="#e87726"/></linearGradient><use xlink:href="#N" fill="url(#J)"/></g><path d="M733.266 730.307c-2.265-.406-10.813-2.596-12.15-3.113-3.135-1.211-13.902-6.726-15.166-7.768-1.69-1.394-1.907-1.562-4.986-3.856-3.05-2.273-9.593-8.816-11.865-11.865l-2.359-3.091-1.215-1.482c-.718-.879-6.787-11.133-6.787-11.468 0-.123-.631-1.631-1.403-3.352a91.72 91.72 0 0 1-2.433-6.092c-.567-1.63-1.26-3.497-1.54-4.149-.627-1.459-2.338-9.521-2.957-13.928-.654-4.66-.634-17.449.034-21.633 1.759-11.021 3.147-15.731 7.172-24.339.62-1.325 1.127-2.726 1.127-3.111s.267-.702.593-.702.593-.344.593-.765 1.647-3.261 3.659-6.311c3.265-4.947 10.7-13.161 15.603-17.237 5.072-4.217 15.106-9.713 21.098-11.557l4.684-1.498c3.012-1.041 8.799-1.798 16.299-2.132 9.667-.431 19.809.831 26.967 3.356 5.353 1.888 10.243 4.146 10.569 4.881.109.245.457.445.773.445 1.25 0 7.978 5.097 12.018 9.105 4.674 4.637 7.735 8.699 10.159 13.483 1.519 2.997 1.537 3.143.476 3.875l-1.724 1.225c-.342.256-1.317.865-2.166 1.354a202.49 202.49 0 0 0-4.275 2.579c-3.061 1.895-4.227 1.756-5.127-.611-2.513-6.61-14.04-17.457-21.889-20.596-8.643-3.457-13.884-4.489-22.779-4.483-9.424.01-15.485 1.164-23.018 4.397-2.573 1.104-8.063 4.384-9.216 5.505-.431.419-.965.762-1.188.762-.63 0-7.221 6.505-10.121 9.988-3.139 3.771-8.592 13.468-9.881 17.571-.512 1.63-1.165 3.497-1.451 4.149-2.518 5.736-4.001 19.631-3.084 28.893.628 6.34 1.946 12.978 3.089 15.558a21.82 21.82 0 0 1 .919 2.667c.955 3.594 6.535 13.993 9.46 17.628s8.25 9.234 10.668 11.218c2.77 2.273 11.765 7.895 12.643 7.903.217 0 1.084.363 1.926.802s3.909 1.437 6.816 2.218c4.444 1.193 6.56 1.408 13.287 1.347 11.256-.101 18.398-2.044 27.856-7.576 6.197-3.625 14.757-11.994 17.78-17.384 1.141-2.034 2.341-3.702 2.667-3.706 1.257-.017 12.743 6.232 12.743 6.933 0 .83-3.452 7.419-4.129 7.879-.24.163-.743.88-1.118 1.593-1.415 2.688-7.903 9.032-14.015 13.705-3.244 2.48-11.83 6.84-17.78 9.03-7.906 2.909-12.702 3.69-23.707 3.858-5.867.09-11.335.044-12.15-.103zm-472.958-.829c0-.33.257-1.064.572-1.63s1.129-2.363 1.81-3.992l1.76-4.149 4.144-9.779 4.161-9.779c.296-.652 1.229-2.919 2.073-5.038l2.068-5.038c.294-.652 1.101-2.519 1.794-4.149l2.107-4.831c.465-1.027.846-2.042.846-2.255 0-.336 1.136-3.068 2.969-7.138.294-.652 1.224-2.919 2.069-5.038l2.074-5.038c.297-.652 1.23-2.919 2.074-5.038l2.069-5.038c.293-.652 1.096-2.519 1.784-4.149l1.772-4.149c.287-.652 1.753-4.119 3.258-7.705l3.268-7.705c.293-.652 1.625-3.852 2.962-7.112l2.96-7.112c.291-.652 1.463-3.452 2.603-6.223l9.268-22.225c.289-.652 1.222-2.919 2.072-5.038s2.064-4.986 2.697-6.371l1.151-2.519h6.443 6.443l1.325 3.112 4.155 9.631c2.017 4.53 2.963 6.8 2.963 7.112 0 .331 1.137 3.015 3.303 7.794.465 1.027.846 2.042.846 2.255 0 .335.916 2.543 2.963 7.138 2.018 4.53 2.963 6.8 2.963 7.112 0 .199.553 1.614 1.228 3.144l2.114 4.857 1.412 3.26c.289.652 1.217 2.919 2.061 5.038l2.064 5.038c.291.652 2.163 5.053 4.159 9.779l4.159 9.779a155.77 155.77 0 0 1 1.494 3.556l8.288 20.151c.438.978 1.894 4.445 3.236 7.705l2.971 7.112a296.16 296.16 0 0 1 1.781 4.149l1.784 4.149c.294.652 1.224 2.919 2.069 5.038l2.07 5.038c2.871 6.36 6.524 15.334 6.524 16.026 0 .718-1.451.865-8.554.865-8.355 0-8.563-.031-8.961-1.333-.364-1.192-1.742-4.538-3.235-7.853-.294-.652-1.229-2.919-2.079-5.038-1.449-3.611-2.62-6.404-3.856-9.187-.289-.652-1.217-2.919-2.061-5.038l-2.069-5.038c-1.798-3.992-2.969-6.798-2.969-7.112 0-.199-.496-1.48-1.101-2.848l-1.923-4.413-.822-1.926h-35.047-35.047l-1.195 2.815c-.658 1.548-1.925 4.682-2.817 6.964s-2.12 5.268-2.73 6.635-1.109 2.649-1.109 2.848c0 .314-1.172 3.12-2.969 7.112-.294.652-1.224 2.919-2.069 5.038l-2.086 5.038c-.303.652-1.515 3.586-2.693 6.519l-2.449 6.075c-.39.941-17.368 1.078-17.368.14zm103.719-62.256c0-.566-.874-2.697-3.303-8.058-.465-1.027-.846-2.054-.846-2.281s-.387-1.254-.861-2.281-2.346-5.602-4.161-10.165l-3.849-9.483c-.302-.652-1.775-4.386-3.273-8.298l-3.252-8.298-1.414-3.26-2.115-4.857c-.675-1.53-1.23-2.997-1.232-3.26s-.348-1.144-.769-1.959-1.407-3.215-2.191-5.334-1.77-4.519-2.191-5.334-.767-1.815-.769-2.223c-.01-1.246-1.084-.823-1.511.593-.221.733-.755 2.134-1.185 3.111s-1.882 4.445-3.224 7.705l-4.165 10.076-11.188 26.967-10.403 25.041-.94 2.223h31.42c21.641 0 31.42-.195 31.42-.625zm58.082-16.562v-79.419l33.042.01c34.51.01 40.759.327 46.293 2.39 3.905 1.456 9.959 4.456 11.065 5.484.423.393 1.66 1.377 2.747 2.186 7.647 5.686 14.951 17.04 17.738 27.571 2.698 10.197 1.595 24.078-2.684 33.753-6.141 13.887-16.478 23.499-29.527 27.456-2.616.793-7.82.978-32.89 1.165l-29.782.223v29.303 29.303h-8.001-8.001v-79.419zm70.338 5.878c10.933-1.512 19.793-9.842 24.221-22.769 1.523-4.447 1.87-16.723.611-21.656-1.71-6.703-4.843-12.269-9.495-16.868-2.308-2.282-4.993-4.548-5.967-5.037s-1.904-1.032-2.067-1.207-1.497-.836-2.963-1.468c-2.49-1.072-4.522-1.161-30.671-1.338l-28.004-.19v35.588 35.588h24.85c14.571 0 26.767-.265 29.486-.641zm33.192 73.096c-.143-.244.763-2.845 2.012-5.779l7.386-17.78 5.914-14.224c.44-.978 1.903-4.445 3.251-7.705l4.752-11.261c.288-.652 1.621-3.852 2.963-7.112l3.223-7.705c.431-.978 2.157-5.112 3.837-9.187l4.77-11.557 9.506-22.522c.291-.652 1.22-2.919 2.064-5.038l2.069-5.038c.293-.652 1.101-2.519 1.794-4.149l2.107-4.831c.465-1.027.846-2.042.846-2.255 0-.335.917-2.543 2.963-7.138 1.177-2.643 2.868-6.715 4.184-10.076.766-1.956 1.637-3.889 1.937-4.297.377-.513 2.504-.741 6.919-.741h6.375l.773 1.926c1.554 3.871 8.362 20.031 10.049 23.855.288.652 1.616 3.852 2.953 7.112l2.975 7.112c.3.652 2.566 6.119 5.034 12.15l5.022 12.15c.293.652 1.919 4.519 3.614 8.594l8.838 21.04 1.779 4.149 1.784 4.149c.294.652 1.229 2.919 2.079 5.038 1.448 3.611 2.62 6.404 3.855 9.187.289.652 1.221 2.919 2.071 5.038s1.929 4.693 2.397 5.72.852 2.051.852 2.275.8 2.136 1.778 4.249 1.778 3.983 1.778 4.155.383 1.154.852 2.181 1.547 3.601 2.397 5.72l2.079 5.038c2.053 4.559 2.969 6.835 2.969 7.376 0 .953-16.276.842-17.044-.116-.327-.408-2.926-6.475-5.774-13.483l-5.96-14.521c-.429-.978-1.476-3.511-2.326-5.63l-2.079-5.038a272.79 272.79 0 0 1-3.542-8.45l-.76-1.931-35.259.153-35.259.153-3.509 8.594-4.08 9.966c-.314.755-.571 1.503-.571 1.662 0 .254-1.287 3.305-2.969 7.041-.294.652-1.229 2.919-2.079 5.038l-2.323 5.63c-.428.978-1.664 3.978-2.747 6.668l-1.969 4.89h-8.146c-4.48 0-8.263-.2-8.405-.444zm103.316-62.101c0-.292-2.041-5.372-3.803-9.465-.421-.978-1.392-3.512-2.158-5.63s-1.737-4.519-2.157-5.334-.767-1.696-.769-1.959c-.01-.413-1.048-2.953-2.973-7.228-.294-.652-1.229-2.919-2.079-5.038l-2.322-5.631c-.427-.978-1.267-3.112-1.866-4.741s-1.432-3.63-1.85-4.445-.762-1.708-.764-1.985-.389-1.343-.86-2.371-1.837-4.401-3.036-7.498l-3.208-8.001-1.85-4.298c-1.025-2.404-1.697-2.212-2.707.775-.434 1.285-1.042 2.871-1.349 3.523s-1.122 2.519-1.809 4.149l-1.785 4.149c-.482 1.068-6.93 16.48-14.878 35.561l-3.492 8.298c-.291.652-1.618 3.852-2.949 7.112L567 665.349c-.478 1.071-.87 2.071-.87 2.223s14.135.276 31.412.276l31.412-.314zm198.828 61.822c-.159-.417-.22-36.097-.136-79.289l.152-78.53h7.705 7.705l.153 35.116.153 35.116h46.521 46.521v-35.264-35.264h8.001 8.001v79.419 79.419h-8.001-8.001v-37.042-37.042h-46.521-46.521l-.153 36.894-.153 36.894-7.568.166c-5.727.125-7.639-.018-7.857-.593zm159.743-78.696v-79.419h52.156 52.156v7.409 7.408h-44.155-44.155v27.856 27.856h38.524 38.524v7.112 7.112h-38.524-38.524v29.634 29.634h45.044 45.043v7.409 7.408h-53.045-53.045z" fill="#a00"/><path d="M255.76 798.077v-49.164h8.3v21.312h24.406v-21.312h8.3v49.164h-8.3v-20.116h-24.406v20.116z"/><use xlink:href="#O"/><use xlink:href="#O" x="42.448"/><use xlink:href="#P"/><path d="M477.485 755.384q-3.587 0-5.908 1.477-2.321 1.477-2.321 4.501 0 2.954 2.321 4.572 2.321 1.547 9.847 3.376 7.596 1.829 11.394 5.134 3.868 3.306 3.868 9.777 0 6.401-4.853 10.41-4.853 4.009-12.731 4.009-11.535 0-20.468-7.948l5.205-6.26q7.456 6.471 15.474 6.471 4.009 0 6.33-1.688 2.391-1.758 2.391-4.572 0-2.884-2.251-4.431-2.18-1.618-7.596-2.884-5.416-1.336-8.229-2.391-2.813-1.125-4.994-2.884-4.361-3.306-4.361-10.128 0-6.823 4.923-10.48 4.994-3.728 12.309-3.728 4.712 0 9.355 1.547 4.642 1.547 8.018 4.361l-4.431 6.26q-2.18-1.969-5.908-3.235-3.728-1.266-7.385-1.266z"/><use xlink:href="#Q"/><use xlink:href="#R"/><path d="M626.027 798.077h-9.284l-19.764-49.164h9.284l15.122 36.715 15.122-36.715h9.284zm61.277-49.164v7.807h-26.235v13.012h23.562v7.385h-23.562v13.153h27.079v7.807H652.77v-49.164z"/><use xlink:href="#R" x="145.754"/><use xlink:href="#P" x="373.931"/><use xlink:href="#R" x="264.307"/><path d="M903.61 760.518q-4.994-5.205-12.309-5.205-7.315 0-12.379 5.205-4.994 5.205-4.994 12.66 0 7.385 4.994 12.59 5.064 5.205 12.379 5.205 7.315 0 12.309-5.205 5.064-5.205 5.064-12.59 0-7.456-5.064-12.66zm6.119 30.807q-7.456 7.245-18.428 7.245-10.972 0-18.428-7.245-7.456-7.315-7.456-18.147 0-10.902 7.456-18.147 7.456-7.315 18.428-7.315 10.972 0 18.428 7.315 7.456 7.245 7.456 18.147 0 10.832-7.456 18.147zm18.032-34.957v-7.456h23.914v32.425q0 8.581-4.361 12.871-4.361 4.29-11.183 4.29-8.581 0-14.63-6.049l4.712-6.541q4.783 4.572 9.355 4.572 3.235 0 5.486-2.18 2.321-2.18 2.321-6.541v-25.391z"/><use xlink:href="#Q" x="457.866"/><path d="M1033.34 790.551q4.291 0 7.385-1.407 3.095-1.477 6.471-4.642l5.345 5.486q-7.807 8.651-18.991 8.651-11.113 0-18.498-7.174-7.315-7.174-7.315-18.147 0-10.972 7.456-18.287 7.526-7.315 18.92-7.315 11.465 0 19.131 8.44l-5.275 5.767q-3.517-3.376-6.682-4.712-3.095-1.336-7.315-1.336-7.456 0-12.52 4.853-5.064 4.783-5.064 12.309 0 7.456 4.994 12.52 5.064 4.994 11.957 4.994z"/><use xlink:href="#O" x="752.258"/></g></svg>